<?xml version="1.0" encoding="UTF-8" standalone="no"?>
<!-- Created with Inkscape (http://www.inkscape.org/) -->

<svg
   version="1.1"
   id="svg2"
   width="797.30664"
   height="221.86667"
   viewBox="0 0 797.30664 221.86667"
   sodipodi:docname="ACM-DL-Logo-flat-CMYK.eps"
   xmlns:inkscape="http://www.inkscape.org/namespaces/inkscape"
   xmlns:sodipodi="http://sodipodi.sourceforge.net/DTD/sodipodi-0.dtd"
   xmlns="http://www.w3.org/2000/svg"
   xmlns:svg="http://www.w3.org/2000/svg">
  <defs
     id="defs6" />
  <sodipodi:namedview
     id="namedview4"
     pagecolor="#ffffff"
     bordercolor="#000000"
     borderopacity="0.25"
     inkscape:showpageshadow="2"
     inkscape:pageopacity="0.0"
     inkscape:pagecheckerboard="0"
     inkscape:deskcolor="#d1d1d1" />
  <g
     id="g8"
     inkscape:groupmode="layer"
     inkscape:label="ink_ext_XXXXXX"
     transform="matrix(1.3333333,0,0,-1.3333333,0,221.86667)">
    <g
       id="g10"
       transform="scale(0.1)">
      <path
         d="m 3200.19,1388.66 c 0,3.29 -1.32,6.59 -3.96,9.22 l -25.7,25.71 c -2.64,2.63 -5.28,3.95 -9.23,3.95 h -137.08 v -289.32 h 137.08 c 3.95,0 6.59,1.32 9.23,3.96 l 25.7,25.7 c 2.64,2.64 3.96,5.93 3.96,9.23 z m 65.24,-257.68 -54.04,-54.05 c -9.23,-9.22 -20.43,-13.83 -32.95,-13.83 h -233.3 v 439.57 h 233.3 c 12.52,0 23.72,-4.62 32.95,-13.84 l 54.04,-54.04 c 9.22,-9.23 13.84,-20.43 13.84,-32.95 v -237.91 c 0,-12.52 -4.62,-23.73 -13.84,-32.95"
         style="fill:#62962d;fill-opacity:1;fill-rule:nonzero;stroke:none"
         id="path12" />
      <path
         d="m 3401.18,1063.1 v 69.86 h 79.08 v 299.85 h -79.08 v 69.86 h 237.26 v -69.86 h -79.09 v -299.85 h 79.09 v -69.86 h -237.26"
         style="fill:#62962d;fill-opacity:1;fill-rule:nonzero;stroke:none"
         id="path14" />
      <path
         d="m 4079.98,1063.1 -9.89,56.01 -42.18,-42.18 c -9.22,-9.22 -20.43,-13.83 -32.95,-13.83 h -133.78 c -12.52,0 -23.73,4.61 -32.95,13.83 l -54.04,54.05 c -9.23,9.22 -13.84,20.43 -13.84,32.95 v 237.91 c 0,12.52 4.61,23.72 13.84,32.95 l 54.04,54.04 c 9.22,9.22 20.43,13.84 32.95,13.84 h 171.35 c 12.52,0 23.72,-4.62 32.95,-13.84 l 57.33,-57.33 -53.38,-52.73 -44.81,44.82 c -2.64,2.63 -5.27,3.95 -9.23,3.95 h -137.08 c -3.96,0 -6.58,-1.32 -9.22,-3.95 l -25.7,-25.71 c -2.64,-2.63 -3.96,-5.93 -3.96,-9.22 v -211.55 c 0,-3.3 1.32,-6.59 3.96,-9.23 l 25.7,-25.7 c 2.64,-2.64 5.26,-3.96 9.22,-3.96 h 104.13 c 3.96,0 6.59,1.32 9.23,3.96 l 59.97,59.97 c 2.64,2.64 3.96,5.27 3.96,9.23 v 34.26 h -108.75 v 75.14 h 187.83 v -170.03 l 17.13,-87.65 h -71.83"
         style="fill:#62962d;fill-opacity:1;fill-rule:nonzero;stroke:none"
         id="path16" />
      <path
         d="m 4264.49,1063.1 v 69.86 h 79.08 v 299.85 h -79.08 v 69.86 h 237.26 v -69.86 h -79.08 v -299.85 h 79.08 v -69.86 h -237.26"
         style="fill:#62962d;fill-opacity:1;fill-rule:nonzero;stroke:none"
         id="path18" />
      <path
         d="M 4789.1,1427.54 V 1063.1 h -79.08 v 364.44 h -127.19 v 75.13 h 333.47 v -75.13 h -127.2"
         style="fill:#62962d;fill-opacity:1;fill-rule:nonzero;stroke:none"
         id="path20" />
      <path
         d="m 5148.94,1417.65 -60.64,-173.98 h 121.26 z m 129.16,-354.55 -41.52,110.06 h -175.3 l -41.51,-110.06 h -79.09 l 162.78,439.57 h 93.58 l 161.47,-439.57 h -80.41"
         style="fill:#62962d;fill-opacity:1;fill-rule:nonzero;stroke:none"
         id="path22" />
      <path
         d="m 5472.01,1063.1 v 439.57 h 79.08 v -364.45 h 215.51 v -75.12 h -294.59"
         style="fill:#62962d;fill-opacity:1;fill-rule:nonzero;stroke:none"
         id="path24" />
      <path
         d="m 2945.14,453.18 v 439.566 h 79.08 V 528.301 h 215.51 V 453.18 h -294.59"
         style="fill:#62962d;fill-opacity:1;fill-rule:nonzero;stroke:none"
         id="path26" />
      <path
         d="m 3349.11,453.18 v 69.851 h 79.08 v 299.86 h -79.08 v 69.855 h 237.26 v -69.855 h -79.09 v -299.86 h 79.09 V 453.18 h -237.26"
         style="fill:#62962d;fill-opacity:1;fill-rule:nonzero;stroke:none"
         id="path28" />
      <path
         d="m 3984.64,591.57 c 0,3.961 -1.32,6.602 -3.96,9.219 l -31.63,31.641 c -2.63,2.64 -5.27,3.961 -9.23,3.961 h -131.15 v -108.09 h 148.28 c 3.3,0 6.59,1.32 9.23,3.961 l 14.5,14.5 c 2.64,2.636 3.96,5.269 3.96,9.226 z m 0,198.371 c 0,3.946 -1.32,6.582 -3.96,9.219 l -14.5,14.504 c -2.64,2.637 -5.27,3.953 -9.23,3.953 H 3808.67 V 710.195 h 132.47 c 3.29,0 6.59,1.321 9.23,3.957 l 30.31,30.313 c 2.64,2.637 3.96,5.273 3.96,9.226 z m 65.24,-280.75 -42.84,-42.832 c -9.23,-9.23 -19.77,-13.179 -32.29,-13.179 h -245.16 v 439.566 h 245.16 c 12.52,0 23.06,-4.609 31.64,-13.183 l 43.49,-43.497 c 9.22,-9.218 13.84,-19.765 13.84,-32.949 v -59.308 c 0,-12.528 -4.62,-23.731 -13.84,-32.957 l -37.57,-37.559 37.57,-37.574 c 9.22,-9.219 13.84,-19.758 13.84,-32.949 v -60.629 c 0,-12.52 -4.62,-23.719 -13.84,-32.95"
         style="fill:#62962d;fill-opacity:1;fill-rule:nonzero;stroke:none"
         id="path30" />
      <path
         d="m 4472.98,789.941 c 0,3.946 -1.32,6.582 -3.96,9.219 l -14.5,14.504 c -2.64,2.637 -5.27,3.953 -9.23,3.953 H 4297.01 V 701.633 h 148.28 c 3.96,0 6.59,1.316 9.23,3.953 l 14.5,14.492 c 2.64,2.637 3.96,5.274 3.96,9.231 z m 13.17,-336.761 -129.82,167.39 c -2.64,3.95 -6.59,5.93 -11.2,5.93 h -48.12 V 453.18 h -79.08 v 439.566 h 245.16 c 12.52,0 23.06,-4.609 31.64,-13.183 l 43.49,-43.497 c 9.22,-9.218 13.84,-19.765 13.84,-32.949 v -86.992 c 0,-13.176 -4.62,-23.723 -13.84,-32.949 l -43.49,-43.496 c -8.58,-8.571 -19.12,-13.18 -31.64,-13.18 h -15.82 l 135.77,-173.32 h -96.89"
         style="fill:#62962d;fill-opacity:1;fill-rule:nonzero;stroke:none"
         id="path32" />
      <path
         d="M 4861.08,807.734 4800.45,633.75 h 121.26 z m 129.17,-354.554 -41.52,110.05 h -175.3 l -41.52,-110.05 h -79.08 l 162.77,439.566 h 93.59 L 5070.65,453.18 h -80.4"
         style="fill:#62962d;fill-opacity:1;fill-rule:nonzero;stroke:none"
         id="path34" />
      <path
         d="m 5432.45,789.941 c 0,3.946 -1.32,6.582 -3.95,9.219 l -14.51,14.504 c -2.63,2.637 -5.27,3.953 -9.22,3.953 H 5256.48 V 701.633 h 148.29 c 3.95,0 6.59,1.316 9.22,3.953 l 14.51,14.492 c 2.63,2.637 3.95,5.274 3.95,9.231 z M 5445.63,453.18 5315.8,620.57 c -2.64,3.95 -6.59,5.93 -11.2,5.93 h -48.12 V 453.18 h -79.08 v 439.566 h 245.16 c 12.53,0 23.07,-4.609 31.64,-13.183 l 43.49,-43.497 c 9.22,-9.218 13.84,-19.765 13.84,-32.949 v -86.992 c 0,-13.176 -4.62,-23.723 -13.84,-32.949 L 5454.2,639.68 c -8.57,-8.571 -19.11,-13.18 -31.64,-13.18 h -15.81 l 135.76,-173.32 h -96.88"
         style="fill:#62962d;fill-opacity:1;fill-rule:nonzero;stroke:none"
         id="path36" />
      <path
         d="M 5831.54,647.59 V 453.18 h -79.08 v 194.41 l -148.94,245.156 h 86.33 l 102.82,-170.683 102.14,170.683 h 85.01 L 5831.54,647.59"
         style="fill:#62962d;fill-opacity:1;fill-rule:nonzero;stroke:none"
         id="path38" />
      <path
         d="M 1350.13,767.695 V 1206.93 H 1228.96 L 1124.92,866.477 1020.87,1206.93 H 899.711 V 767.695 h 77.043 V 1116.7 L 1084.09,767.695 h 81.65 L 1273.08,1116.7 V 767.695 h 77.05 z m -540.306,71.114 -53.34,52.687 -44.769,-44.785 c -2.645,-2.629 -5.274,-3.945 -9.227,-3.945 H 593.832 c -3.949,0 -6.582,1.316 -9.219,3.945 l -25.683,25.684 c -2.625,2.636 -3.95,5.925 -3.95,9.218 v 211.377 c 0,3.3 1.325,6.59 3.95,9.22 l 25.683,25.69 c 2.637,2.63 5.27,3.95 9.219,3.95 h 108.656 c 3.953,0 6.582,-1.32 9.227,-3.95 l 44.769,-44.78 53.34,52.68 -57.289,57.29 c -9.222,9.22 -20.41,13.84 -32.922,13.84 H 576.715 c -12.512,0 -23.711,-4.62 -32.922,-13.84 l -53.996,-54 c -9.227,-9.21 -13.836,-20.41 -13.836,-32.93 V 868.438 c 0,-12.508 4.609,-23.692 13.836,-32.918 l 53.996,-53.997 c 9.211,-9.218 20.41,-13.828 32.922,-13.828 h 142.898 c 12.512,0 23.7,4.61 32.922,13.828 l 57.289,57.286 z M 268.672,948.125 H 147.504 L 208.09,1121.97 268.672,948.125 Z M 417.488,767.695 256.16,1206.93 H 162.652 L 0,767.695 h 79.0234 l 41.4806,109.973 h 175.172 l 41.476,-109.973 h 80.336 v 0"
         style="fill:#62962d;fill-opacity:1;fill-rule:nonzero;stroke:none"
         id="path40" />
      <path
         d="m 1992.46,1546.69 -183.82,48.14 -47.9,-182.82 132.75,35.7 98.97,98.98"
         style="fill:#62962d;fill-opacity:1;fill-rule:nonzero;stroke:none"
         id="path42" />
      <path
         d="m 1838.88,1391.77 -264.05,-71.66 40.47,-150.58 z"
         style="fill:#62962d;fill-opacity:1;fill-rule:nonzero;stroke:none"
         id="path44" />
      <path
         d="m 2734.11,1152.8 48.93,186.87 -182.73,47.56 36.84,-138.96 96.96,-95.47"
         style="fill:#62962d;fill-opacity:1;fill-rule:nonzero;stroke:none"
         id="path46" />
      <path
         d="m 1601.62,804.258 -48.14,-183.817 182.81,-47.839 -36.04,133.031 -98.63,98.625"
         style="fill:#62962d;fill-opacity:1;fill-rule:nonzero;stroke:none"
         id="path48" />
      <path
         d="m 2508.31,1573.48 -152.53,-42.35 225.04,-225.03 z"
         style="fill:#62962d;fill-opacity:1;fill-rule:nonzero;stroke:none"
         id="path50" />
      <path
         d="m 2493.95,567.148 267.78,72.672 -41.65,153.453 z"
         style="fill:#62962d;fill-opacity:1;fill-rule:nonzero;stroke:none"
         id="path52" />
      <path
         d="m 2341.01,414.211 186.87,-48.941 48.08,182.871 -138.64,-37.629 -96.31,-96.301"
         style="fill:#62962d;fill-opacity:1;fill-rule:nonzero;stroke:none"
         id="path54" />
      <path
         d="m 1828.21,386.629 150.22,40.82 -221.39,221.391 z"
         style="fill:#62962d;fill-opacity:1;fill-rule:nonzero;stroke:none"
         id="path56" />
      <path
         d="m 2284.54,1197.88 h 75.07 V 851.934 h 204.56 V 780.625 H 2284.54 Z M 2162.05,876.328 c 0,-11.875 -4.37,-22.519 -13.13,-31.277 l -51.3,-51.301 c -8.76,-8.75 -19.39,-13.125 -31.28,-13.125 h -221.46 v 417.255 h 221.46 c 11.89,0 22.52,-4.38 31.28,-13.14 l 51.3,-51.29 c 8.76,-8.76 13.13,-19.4 13.13,-31.27 z m 562.25,-22.262 125.99,125.985 -399.85,399.849 -156.19,156.2 -127.91,127.9 -223.2,-223.2 v 0 l -331.74,-331.75 -129,-128.999 225.12,-225.121 331.74,-331.739 127.08,-127.089 221.78,221.777 336.18,336.187"
         style="fill:#62962d;fill-opacity:1;fill-rule:nonzero;stroke:none"
         id="path58" />
      <path
         d="m 2058.83,1122.81 c -2.5,2.5 -5,3.75 -8.75,3.75 H 1919.95 V 851.934 h 130.13 c 3.75,0 6.25,1.25 8.75,3.761 l 24.4,24.383 c 2.5,2.512 3.75,5.637 3.75,8.762 v 200.82 c 0,3.13 -1.25,6.25 -3.75,8.75 l -24.4,24.4"
         style="fill:#62962d;fill-opacity:1;fill-rule:nonzero;stroke:none"
         id="path60" />
      <path
         d="m 3055.65,174.352 v -50.493 c 0,-0.41 -0.18,-0.808 -0.55,-1.179 l -29.31,-29.3011 c -0.33,-0.3281 -0.71,-0.5586 -1.49,-0.5586 h -44.11 c -0.5,0 -0.92,0.3203 -1.18,0.5703 L 2966,106.379 c -0.27,0.402 -0.67,1.82 -0.67,2.992 v 81.149 c 0,0.5 0,0.609 0.55,1.171 l 13.15,13.137 c 0.35,0.363 0.75,0.543 1.16,0.543 h 44.11 c 0.88,0 1.22,-0.269 1.5,-0.551 l 29.3,-29.289 c 0.37,-0.371 0.55,-0.769 0.55,-1.179 z m 29.19,124.187 h -29.19 v -83.84 l -10.99,10.992 c -5.59,5.59 -12.63,8.539 -20.36,8.539 h -44.79 c -7.95,0 -14.5,-2.679 -20.03,-8.191 l -14.81,-14.82 c -5.67,-5.668 -8.54,-12.641 -8.54,-20.699 v -82.161 c 0,-8.269 3.04,-15.8707 8.54,-21.3785 l 14.81,-14.8086 c 5.52,-5.5235 12.07,-8.1914 20.03,-8.1914 h 44.79 c 7.73,0 14.77,2.9414 20.36,8.5312 l 13.04,13.0391 4.63,-21.5703 h 29.01 l -6.5,31.6015 v 202.957"
         style="fill:#62962d;fill-opacity:1;fill-rule:nonzero;stroke:none"
         id="path62" />
      <path
         d="m 3106.86,269.691 h 34 V 63.9805 h 29.19 V 298.539 h -63.19 v -28.848"
         style="fill:#62962d;fill-opacity:1;fill-rule:nonzero;stroke:none"
         id="path64" />
      <path
         d="m 3229.75,63.9805 h 38.28 v 38.2815 h -38.28 V 63.9805"
         style="fill:#62962d;fill-opacity:1;fill-rule:nonzero;stroke:none"
         id="path66" />
      <path
         d="m 3433.44,149.148 v -31.359 c 0,-0.5 0,-0.629 -0.55,-1.18 l -23.22,-23.2106 c -0.27,-0.2578 -0.69,-0.5781 -1.19,-0.5781 h -50.5 c -0.51,0 -0.92,0.3203 -1.18,0.5703 l -13.13,13.1214 c -0.56,0.566 -0.56,0.699 -0.56,1.187 v 26.59 c 0,0.402 0.19,0.801 0.56,1.172 l 13.12,13.129 c 0.55,0.558 0.69,0.558 1.19,0.558 z m 29.19,-50.8863 V 190.52 c 0,7.621 -3.2,15.359 -8.54,20.699 l -14.81,14.82 c -5.36,5.359 -12.29,8.191 -20.03,8.191 h -61.95 c -8.07,0 -14.44,-2.609 -20.02,-8.191 l -18.66,-18.66 20.12,-20.617 18.07,18.066 c 0.54,0.543 0.66,0.543 1.17,0.543 h 60.6 c 0.52,0 0.63,0 1.18,-0.551 l 13.13,-13.129 c 0.36,-0.359 0.55,-0.761 0.55,-1.171 V 178 h -76.47 c -7.74,0 -14.78,-2.949 -20.37,-8.539 l -14.14,-14.133 c -5.58,-5.578 -8.54,-12.629 -8.54,-20.367 v -27.262 c 0,-7.8592 3.03,-15.2107 8.54,-20.7185 l 14.82,-14.8086 c 5.49,-5.5117 12.05,-8.1914 20.02,-8.1914 h 51.85 c 8.3,0 14.29,2.4492 20.03,8.1914 l 9.26,9.2695 19.53,-19.5312 20.19,20.1914 -14.98,14.9765 c -0.55,0.5625 -0.55,0.6719 -0.55,1.1836"
         style="fill:#62962d;fill-opacity:1;fill-rule:nonzero;stroke:none"
         id="path68" />
      <path
         d="m 3541.33,191.691 13.14,13.137 c 0.55,0.543 0.67,0.543 1.16,0.543 h 60.6 c 0.52,0 0.63,0 1.15,-0.531 l 23.41,-23.781 20.57,20.562 -24.42,24.418 c -5.6,5.59 -11.96,8.191 -20.03,8.191 h -61.95 c -8.07,0 -14.42,-2.601 -20.03,-8.191 l -14.81,-14.82 c -5.51,-5.508 -8.54,-12.848 -8.54,-20.699 v -82.821 c 0,-7.8592 3.03,-15.2107 8.54,-20.7185 l 14.81,-14.8086 c 5.52,-5.5235 12.06,-8.1914 20.03,-8.1914 h 61.95 c 8.08,0 14.45,2.5976 20.03,8.1914 l 24.42,24.4062 -20.57,20.5699 -23.38,-23.7574 c -0.56,-0.5703 -0.68,-0.5703 -1.18,-0.5703 h -60.6 c -0.47,0 -0.6,0 -1.17,0.5703 l -13.13,13.1214 c -0.37,0.379 -0.56,0.777 -0.56,1.187 v 82.821 c 0,0.402 0.2,0.812 0.56,1.171"
         style="fill:#62962d;fill-opacity:1;fill-rule:nonzero;stroke:none"
         id="path70" />
      <path
         d="m 3886.1,226.039 c -5.52,5.512 -12.08,8.191 -20.03,8.191 h -17.16 c -7.75,0 -14.79,-2.949 -20.37,-8.539 l -17.01,-17 -17.34,17.348 c -5.53,5.512 -12.07,8.191 -20.02,8.191 h -17.18 c -7.74,0 -14.79,-2.949 -20.36,-8.539 l -13.22,-13.222 -5.24,21.761 h -29.81 l 8.09,-33.55 V 63.9805 h 29.18 V 174.352 c 0,0.5 0,0.628 0.55,1.179 l 29.31,29.297 c 0.29,0.293 0.98,0.543 1.5,0.543 h 16.5 c 0.42,0 0.81,-0.18 1.18,-0.551 l 13.12,-13.121 c 0.57,-0.578 0.57,-0.699 0.57,-1.179 V 63.9805 h 29.19 V 174.352 c 0,0.5 0,0.628 0.55,1.179 l 29.29,29.297 c 0.3,0.293 0.99,0.543 1.52,0.543 h 16.49 c 0.42,0 0.81,-0.18 1.18,-0.551 l 13.13,-13.121 c 0.55,-0.558 0.55,-0.687 0.55,-1.179 V 63.9805 h 29.19 V 190.52 c 0,8.07 -2.87,15.039 -8.53,20.699 l -14.82,14.82"
         style="fill:#62962d;fill-opacity:1;fill-rule:nonzero;stroke:none"
         id="path72" />
      <path
         d="m 3969.19,63.9805 h 38.28 v 38.2815 h -38.28 V 63.9805"
         style="fill:#62962d;fill-opacity:1;fill-rule:nonzero;stroke:none"
         id="path74" />
      <path
         d="m 4177.6,190.52 v -81.149 c 0,-1.172 -0.4,-2.601 -0.55,-2.859 l -13.14,-13.1214 c -0.27,-0.25 -0.68,-0.5703 -1.18,-0.5703 h -60.59 c -0.51,0 -0.92,0.3203 -1.18,0.5703 l -13.13,13.1214 c -0.56,0.566 -0.56,0.699 -0.56,1.187 v 82.821 c 0,0.48 0,0.601 0.56,1.171 l 13.14,13.137 c 0.36,0.363 0.75,0.543 1.17,0.543 h 60.59 c 0.42,0 0.8,-0.172 1.18,-0.551 l 13.13,-13.121 c 0.56,-0.558 0.56,-0.687 0.56,-1.179 z m 5.84,35.519 c -5.53,5.512 -12.08,8.191 -20.03,8.191 h -61.95 c -7.95,0 -14.51,-2.679 -20.03,-8.191 l -14.82,-14.82 c -5.66,-5.668 -8.53,-12.641 -8.53,-20.699 v -82.821 c 0,-8.0701 2.87,-15.0388 8.53,-20.7185 l 14.82,-14.8086 c 5.51,-5.5235 12.06,-8.1914 20.03,-8.1914 h 61.95 c 7.97,0 14.51,2.6679 20.03,8.1914 l 14.81,14.8086 c 5.51,5.5078 8.54,13.1015 8.54,21.3785 v 82.161 c 0,8.07 -2.87,15.039 -8.54,20.699 l -14.81,14.82"
         style="fill:#62962d;fill-opacity:1;fill-rule:nonzero;stroke:none"
         id="path76" />
      <path
         d="m 4360.55,226.039 c -5.53,5.512 -12.08,8.191 -20.04,8.191 h -26.59 c -7.74,0 -14.78,-2.949 -20.37,-8.539 l -13.22,-13.222 -5.23,21.761 h -29.81 l 8.08,-33.55 V 63.9805 h 29.19 V 174.352 c 0,0.5 0,0.617 0.56,1.179 l 29.29,29.297 c 0.3,0.293 0.99,0.543 1.51,0.543 h 25.92 c 0.42,0 0.81,-0.18 1.19,-0.551 l 13.12,-13.129 c 0.56,-0.562 0.56,-0.679 0.56,-1.171 v -28.911 h 29.19 v 28.911 c 0,8.07 -2.87,15.039 -8.54,20.699 l -14.81,14.82"
         style="fill:#62962d;fill-opacity:1;fill-rule:nonzero;stroke:none"
         id="path78" />
      <path
         d="m 4526.44,174.352 v -50.493 c 0,-0.41 -0.2,-0.82 -0.55,-1.179 l -29.32,-29.3011 c -0.34,-0.3398 -0.71,-0.5586 -1.49,-0.5586 h -44.1 c -0.51,0 -0.92,0.3203 -1.19,0.5703 l -13.12,13.1214 c -0.57,0.566 -0.57,0.699 -0.57,1.187 v 81.133 c 0,1.156 0.41,2.59 0.57,2.859 l 13.13,13.137 c 0.37,0.363 0.76,0.543 1.18,0.543 h 44.1 c 0.88,0 1.21,-0.262 1.5,-0.551 l 29.3,-29.281 c 0.36,-0.367 0.56,-0.777 0.56,-1.187 z m 35.69,59.878 h -29.01 l -4.64,-21.57 -13.04,13.031 c -5.57,5.59 -12.62,8.539 -20.36,8.539 h -44.79 c -7.95,0 -14.5,-2.679 -20.03,-8.191 l -14.81,-14.82 c -5.51,-5.52 -8.54,-13.098 -8.54,-21.391 v -82.129 c 0,-8.0701 2.88,-15.0388 8.54,-20.7185 l 14.81,-14.8086 c 5.52,-5.5235 12.06,-8.1914 20.03,-8.1914 h 44.79 c 7.74,0 14.79,2.9414 20.36,8.5312 l 11,11 V 43.7188 c 0,-0.4102 -0.2,-0.8204 -0.55,-1.1797 l -13.13,-13.1172 c -0.57,-0.5625 -0.69,-0.5625 -1.19,-0.5625 h -60.59 c -0.51,0 -0.63,0 -1.16,0.5312 l -23.4,23.7813 -20.57,-20.5625 24.41,-24.41018 C 4435.87,2.60938 4442.24,0 4450.29,0 h 61.96 c 8.05,0 14.42,2.60938 20.03,8.19922 l 14.81,14.82028 c 5.5,5.4922 8.54,12.8399 8.54,20.6993 l -0.1,157.9102 6.6,32.601"
         style="fill:#62962d;fill-opacity:1;fill-rule:nonzero;stroke:none"
         id="path80" />
    </g>
  </g>
</svg>
