<svg width="185" height="42" viewBox="0 0 185 42" fill="none" xmlns="http://www.w3.org/2000/svg">
<path fill-rule="evenodd" clip-rule="evenodd" d="M39.16 25.569C37.69 21.583 28.54 21.31 18.02 24.591C7.49998 27.872 -0.0700401 34.042 1.11996 37.673C2.40996 41.587 11.8099 42.154 22.3399 38.873C32.8699 35.592 40.57 29.435 39.16 25.569ZM21.9599 37.358C13.5999 39.965 6.27999 39.714 5.14999 36.398C4.17999 33.555 10.01 28.684 18.37 26.064C26.95 23.374 33.99 23.65 35.14 26.783C36.26 29.822 30.3299 34.75 21.9599 37.358Z" fill="#ABAFB3"/>
<path fill-rule="evenodd" clip-rule="evenodd" d="M23.76 23.174C23.89 23.646 24.0301 24.117 24.1601 24.588C24.9401 27.54 25.7801 31.088 26.5501 34.044C24.8201 31.271 23.12 27.764 21.37 25.214C20.6286 24.1839 19.7952 23.2233 18.88 22.344C17.75 21.468 17.05 21.318 16.21 22.478C15.5607 23.3782 15.0766 24.3865 14.7801 25.456C14.4401 26.379 14.19 27.322 14.19 27.322L13.0501 31.145L12.9101 31.117C12.8501 30.163 12.9901 27.055 13.1801 24.708C13.4873 20.4346 14.1834 16.198 15.26 12.051C15.5402 10.9992 15.4374 9.88201 14.97 8.89899C14.0349 6.92784 13.3593 4.8438 12.96 2.69897L13.01 2.61102C13.7 3.42602 14.4901 4.51599 15.1701 5.33899C15.9925 6.35872 17.0895 7.12194 18.3316 7.53851C19.5737 7.95508 20.9091 8.00763 22.1801 7.69C24.1318 7.34023 26.059 6.86556 27.95 6.26898C28.26 6.16898 28.58 6.10099 29.19 5.93799C29.19 6.21599 27.36 7.49502 26.49 8.05402C25.37 8.77902 24.2001 9.42801 23.0401 10.101C22.3491 10.4235 21.7949 10.9806 21.4762 11.6734C21.1576 12.3662 21.0952 13.1495 21.3001 13.884C21.9601 17.019 22.86 20.1 23.76 23.174ZM20.94 2.23199C20.9291 2.21733 20.9223 2.20012 20.9201 2.18201C20.8255 1.88143 20.6507 1.61232 20.4146 1.40369C20.1785 1.19505 19.8899 1.05478 19.58 0.997986C19.379 1.00014 19.182 1.05318 19.0071 1.15216C18.8322 1.25114 18.6853 1.39287 18.58 1.56403C18.1819 2.22084 17.9226 2.95214 17.8176 3.71295C17.7127 4.47377 17.7645 5.24795 17.97 5.98798C17.987 6.28104 18.1137 6.55697 18.325 6.7608C18.5362 6.96464 18.8165 7.08147 19.11 7.08801C19.3089 7.07619 19.5029 7.02175 19.6789 6.92841C19.8548 6.83507 20.0087 6.705 20.13 6.547C20.7072 5.88169 21.0575 5.0498 21.13 4.172C21.2295 3.5196 21.1641 2.8527 20.94 2.23199V2.23199Z" fill="#F3B00B"/>
<path fill-rule="evenodd" clip-rule="evenodd" d="M151.51 37.877V12.443H154.72V22.69H166.65V12.443H169.91V37.877H166.65V25.577H154.72V37.877H151.51ZM180.81 37.877V12.443H184.01V37.877H180.81ZM127.9 17.742C128.828 16.7694 129.944 15.9951 131.18 15.466C132.4 14.9304 133.718 14.6526 135.05 14.65C136.602 14.6287 138.139 14.9521 139.55 15.597C140.286 15.9432 140.98 16.3709 141.62 16.872V13.481C140.897 13.0901 140.14 12.7632 139.36 12.504C138.005 12.0572 136.587 11.8313 135.16 11.835C133.423 11.8163 131.698 12.132 130.08 12.765C128.467 13.4286 127.001 14.4039 125.766 15.6349C124.53 16.8659 123.549 18.3285 122.88 19.939C122.222 21.6424 121.896 23.456 121.92 25.282C121.897 27.429 122.39 29.5502 123.36 31.466C124.347 33.3664 125.786 34.9954 127.55 36.21C128.627 36.9686 129.814 37.5571 131.07 37.955C132.321 38.3552 133.627 38.5576 134.94 38.555C136.444 38.5588 137.94 38.3225 139.37 37.855C140.147 37.6015 140.9 37.2799 141.62 36.894V33.5C141.009 33.9949 140.345 34.4202 139.64 34.768C138.201 35.4584 136.621 35.8031 135.025 35.7744C133.43 35.7458 131.863 35.3447 130.45 34.603C128.96 33.8058 127.687 32.6581 126.74 31.259C126.166 30.4201 125.734 29.4928 125.46 28.514C125.163 27.4512 125.018 26.3515 125.03 25.248C125.013 23.84 125.257 22.441 125.75 21.122C126.239 19.8656 126.969 18.7172 127.9 17.742ZM63.97 15.6L62.84 16.546C62.3474 15.6324 61.6151 14.8703 60.7218 14.3417C59.8285 13.8131 58.808 13.538 57.77 13.546C56.9281 13.5379 56.1005 13.7643 55.38 14.2C54.6656 14.6286 54.0787 15.2404 53.6801 15.972C53.2648 16.7129 53.0509 17.5497 53.0599 18.399C53.031 18.9121 53.1206 19.425 53.3218 19.8979C53.5229 20.3708 53.8302 20.791 54.22 21.126C55.251 21.9318 56.3758 22.6098 57.57 23.145L62.35 25.679C63.2335 26.1889 63.9642 26.9265 64.4655 27.8149C64.9668 28.7034 65.2204 29.7101 65.2 30.73C65.2089 32.0586 64.8263 33.3605 64.1 34.473C63.3707 35.5927 62.3695 36.5092 61.1899 37.137C60.0147 37.7762 58.6978 38.11 57.36 38.108C55.734 38.1333 54.1463 37.6138 52.85 36.632C51.5264 35.6148 50.5345 34.2275 50 32.646L51.39 32.012C51.8747 33.3191 52.6916 34.4775 53.76 35.373C54.8056 36.199 56.108 36.6315 57.4399 36.595C58.5058 36.5985 59.5539 36.3226 60.48 35.795C61.4116 35.2775 62.1936 34.528 62.75 33.619C63.3149 32.7126 63.6097 31.664 63.6 30.596C63.6162 29.7841 63.3591 28.9902 62.87 28.342C62.4089 27.7449 61.8429 27.2366 61.2 26.842C60.57 26.469 59.6999 26.003 58.5599 25.442L54.0501 23.016C53.2476 22.5626 52.5829 21.9001 52.1268 21.0991C51.6708 20.2981 51.4403 19.3885 51.46 18.467C51.4391 17.3042 51.7218 16.1562 52.28 15.136C52.8037 14.1698 53.5954 13.3756 54.5599 12.849C55.5742 12.2956 56.7147 12.0147 57.87 12.034C59.1184 12.0299 60.3448 12.3626 61.42 12.997C62.4946 13.6119 63.3773 14.513 63.97 15.6ZM77.53 12.368V37.768H75.95V12.368H77.53ZM102.45 25.537H113C113.009 26.6027 112.942 27.6678 112.8 28.724C112.665 29.6826 112.399 30.6183 112.01 31.505C111.608 32.4188 111.057 33.2596 110.38 33.993C109.188 35.3027 107.724 36.3359 106.09 37.02C104.452 37.7331 102.686 38.1027 100.9 38.106C99.2169 38.1095 97.5514 37.7621 96.01 37.086C92.8928 35.7211 90.4115 33.2213 89.07 30.094C88.3929 28.5399 88.0457 26.8622 88.0501 25.167C88.0355 22.8526 88.6433 20.5769 89.8099 18.578C90.9492 16.5924 92.5908 14.9415 94.57 13.791C96.5434 12.6237 98.7972 12.015 101.09 12.03C102.524 12.0231 103.948 12.264 105.3 12.742C106.622 13.2159 107.855 13.9067 108.95 14.786C110.083 15.7076 111.088 16.7752 111.94 17.961L110.65 19.006C110.113 18.1803 109.486 17.4173 108.78 16.731C108.092 16.0637 107.327 15.4812 106.5 14.996C105.683 14.52 104.805 14.1574 103.89 13.918C102.944 13.6665 101.969 13.5407 100.99 13.544C99.0103 13.542 97.0698 14.0964 95.39 15.144C93.6571 16.1892 92.2159 17.6548 91.2 19.405C90.1798 21.1159 89.6441 23.072 89.65 25.064C89.6421 27.0744 90.1703 29.0506 91.1801 30.789C92.1698 32.535 93.5963 33.9937 95.32 35.022C97.0301 36.0553 98.9919 36.5975 100.99 36.589C103.701 36.5572 106.312 35.565 108.36 33.789C109.016 33.2268 109.588 32.5743 110.06 31.851C110.504 31.1699 110.835 30.4216 111.04 29.635C111.266 28.7892 111.391 27.9193 111.41 27.044H102.45V25.53V25.537Z" fill="white"/>
</svg>
